<svg xmlns="http://www.w3.org/2000/svg" viewBox="0 0 900 400"><rect width="900" height="400" rx="28" fill="#081726"/><text x="68" y="55" fill="#8fa4b8" font-family="Arial" font-size="21" font-weight="700">TEMPO MÉDIO DE ESPERA · h</text><g stroke="#35536f" stroke-width="2"><line x1="110" y1="88" x2="110" y2="318"/><line x1="110" y1="318" x2="830" y2="318"/><line x1="110" y1="252" x2="830" y2="252" opacity=".45"/><line x1="110" y1="186" x2="830" y2="186" opacity=".45"/><line x1="110" y1="120" x2="830" y2="120" opacity=".45"/></g><g fill="#8fa4b8" font-family="Arial" font-size="18"><text x="72" y="324">0</text><text x="72" y="258">2</text><text x="72" y="192">4</text><text x="72" y="126">6</text><text x="132" y="350">Jan</text><text x="257" y="350">Fev</text><text x="382" y="350">Mar</text><text x="507" y="350">Abr</text><text x="632" y="350">Mai</text><text x="758" y="350">Jun</text></g><polyline points="150,266 275,247 400,258 525,211 650,176 790,137" fill="none" stroke="#4a90e2" stroke-width="6" stroke-linecap="round" stroke-linejoin="round"/><g fill="#4a90e2"><circle cx="150" cy="266" r="8"/><circle cx="275" cy="247" r="8"/><circle cx="400" cy="258" r="8"/><circle cx="525" cy="211" r="8"/><circle cx="650" cy="176" r="8"/><circle cx="790" cy="137" r="8"/></g></svg>